# xmcd
# Copyright (C) 1995-1998 Ti Kan
#
# Track frame offsets:
#       150
#       17288
#       30103
#       53099
#       70216
#       86914
#       102716
#       108191
#       125022
#       140769
#       165750
#       171568
#       192298
#       211364
#
# Disc length: 2883 seconds
#
# Revision: 0
# Processed by: cddbd v1.5.2PL0 Copyright (c) Steve Scherf et al.
# Submitted via: CD-Transfer v1.0
#
DISCID=bd0b410e
DTITLE=Frightened Rabbit - Frightened Rabbit, S. Hutchinson
DYEAR=09
DGENRE=
TTITLE0=Modern Leper, The
TTITLE1=I Feel Better
TTITLE2=Good Arms 
TTITLE3=Fast Blood
TTITLE4=Old, Old Fashioned
TTITLE5=Twist, The
TTITLE6=Bright Pink Bookmark
TTITLE7=Head Rolls Off
TTITLE8=My Backwards Walk
TTITLE9=Keep Yourself Warm
TTITLE10=Extrasupervery
TTITLE11=Poke
TTITLE12=Floating In The Forth
TTITLE13=Who'd You Kill Now?
EXTD=
EXTT0=
EXTT1=
EXTT2=
EXTT3=
EXTT4=
EXTT5=
EXTT6=
EXTT7=
EXTT8=
EXTT9=
EXTT10=
EXTT11=
EXTT12=
EXTT13=
PLAYORDER=
